<svg width="299" height="280" viewBox="0 0 299 258" fill="none" xmlns="http://www.w3.org/2000/svg">
<path d="M123.967 7.55885C123.967 7.55885 22.6083 11.4748 16.8574 90.7227C11.1066 169.971 -15.491 245.372 49.2058 249.873C113.903 254.373 265.581 263.116 287.146 215.904C308.712 168.692 319.495 -9.06596 123.967 7.55885Z" fill="#171023"/>
<path d="M96.2217 98.9206C94.9764 97.4274 93.7478 93.2026 93.9383 91.984C95.206 83.8739 96.47 68.5524 103.869 62.9254C105.132 61.9644 111.388 65.7649 113.207 65.491C117.857 67.0534 119.361 67.8518 124.603 67.4065C140.077 66.0917 141.247 37.8773 164.829 49.3517C182.103 57.7566 188.449 71.9126 208.061 52.6287C227.673 33.3449 282.011 15.3778 288.72 47.6526C292.57 66.1753 262.252 69.9806 255.381 87.0894C248.852 103.347 233.427 107.454 213.097 102.06C192.767 96.6661 193.833 107.932 185.654 121.56C175.83 137.929 152.116 120.545 141.939 111.689C133.743 104.557 107.461 91.3132 96.2217 98.9206Z" fill="url(#paint0_linear_5_398)"/>
<mask id="mask0_5_398" style="mask-type:luminance" maskUnits="userSpaceOnUse" x="81" y="29" width="209" height="100">
<path d="M102.42 58.3689C95.6519 69.6423 88.2427 80.866 81.3582 92.186C86.5515 97.8297 92.815 104.356 101.31 99.3164C113.12 92.3097 133.828 104.524 141.974 111.688C152.057 120.556 175.854 137.922 185.658 121.558C193.82 107.935 192.772 96.6642 213.099 102.06C233.426 107.456 248.849 103.345 255.382 87.0886C262.257 69.9806 292.563 66.1799 288.72 47.6522C282.025 15.3685 227.645 33.3584 208.072 52.6244C188.499 71.8903 181.988 57.8046 164.86 49.3395C141.478 37.7825 139.575 66.2959 124.845 67.2908C113.298 68.0707 110.439 63.3418 102.42 58.3689Z" fill="white"/>
</mask>
<g mask="url(#mask0_5_398)">
<path d="M98.4799 78.1372L98.6328 77.7661C162.952 98.6905 234.266 83.4225 289.398 36.9241L289.704 37.2109C263.576 59.2477 232.612 74.8328 200.161 82.2811C166.044 90.1119 130.884 88.6787 98.4799 78.1372Z" fill="#FCFDFE"/>
<path d="M182.449 128.78C174.309 113.78 153.772 94.6171 136.67 86.0623L136.888 85.7178C154.058 94.3063 174.676 113.547 182.849 128.608L182.449 128.78Z" fill="#FCFDFE"/>
<path d="M111.159 82.1162L111.19 81.7218C121.366 82.356 131.511 78.3925 141.344 69.9417C148.555 63.7451 155.432 55.325 161.786 44.9146L162.177 45.1033C155.801 55.5489 148.896 64.0015 141.654 70.2259C131.726 78.7581 121.466 82.7585 111.159 82.1162Z" fill="#FCFDFE"/>
<path d="M204.721 81.0649L204.729 80.6695C223.978 80.9879 240.416 91.495 250.817 100.253L250.511 100.54C240.168 91.83 223.827 81.3807 204.721 81.0649Z" fill="#FCFDFE"/>
<path d="M245.495 66.1929L245.211 65.889C261.881 53.5535 266.978 33.8276 268.533 23.1673L268.974 23.2181C267.411 33.9359 262.282 53.771 245.495 66.1929Z" fill="#FCFDFE"/>
</g>
<mask id="mask1_5_398" style="mask-type:luminance" maskUnits="userSpaceOnUse" x="33" y="5" width="202" height="205">
<path d="M64.111 209.119C53.6492 203.246 43.3128 197.149 33.1105 190.832C32.8562 190.906 39.9704 167.835 57.18 161.047C90.984 148.08 85.425 122.296 86.8605 108.882C88.0492 89.6374 101.635 71.031 120.178 82.8257C138.454 93.8924 159.618 58.6841 170.166 29.2922C174.041 14.4908 196.781 3.63988 213.122 5.55125C229.967 7.17312 240.414 21.5572 231.363 50.5377C222.491 84.7256 187.165 93.5307 169.718 105.549C152.568 117.338 168.23 138.516 143.742 145.3C122.821 151.658 99.747 153.062 98.944 171.088C98.415 189.014 90.5541 200.742 64.111 209.119Z" fill="white"/>
</mask>
<g mask="url(#mask1_5_398)">
<path d="M64.111 209.119C53.6492 203.246 43.3128 197.149 33.1105 190.832C32.8562 190.906 39.9704 167.835 57.18 161.047C90.984 148.08 85.425 122.296 86.8605 108.882C88.1136 89.6774 100.661 73.2907 119.642 80.4546C140.875 88.0364 160.003 58.7681 170.166 29.292C174.041 14.4906 196.781 3.63976 213.122 5.55113C229.967 7.173 240.414 21.557 231.363 50.5376C222.491 84.7255 187.165 93.5306 169.718 105.549C152.568 117.338 168.23 138.516 143.742 145.3C122.821 151.658 99.747 153.062 98.944 171.088C98.415 189.014 90.5541 200.742 64.111 209.119Z" fill="url(#paint1_linear_5_398)"/>
</g>
<mask id="mask2_5_398" style="mask-type:luminance" maskUnits="userSpaceOnUse" x="33" y="5" width="202" height="205">
<path d="M64.111 209.119C53.6492 203.246 43.3128 197.149 33.1105 190.832C32.8562 190.906 39.9704 167.835 57.18 161.047C90.984 148.08 85.425 122.296 86.8605 108.882C88.0492 89.6374 101.635 71.031 120.178 82.8257C138.454 93.8924 159.618 58.6841 170.166 29.2922C174.041 14.4908 196.781 3.63988 213.122 5.55125C229.967 7.17312 240.414 21.5572 231.363 50.5377C222.491 84.7256 187.165 93.5307 169.718 105.549C152.568 117.338 168.23 138.516 143.742 145.3C122.821 151.658 99.747 153.062 98.944 171.088C98.415 189.014 90.5541 200.742 64.111 209.119Z" fill="white"/>
</mask>
<g mask="url(#mask2_5_398)">
<path d="M47.943 204.279C48.0356 204.086 81.417 162.791 121.957 125.758C128.075 119.595 134.448 113.453 140.611 107.514C174.932 74.4391 207.349 43.198 212.575 -3.68732L213.308 -3.62289C208.058 43.4811 175.559 74.8004 141.152 107.959C134.992 113.895 128.622 120.034 122.497 126.204C81.7381 163.437 48.7816 204.292 48.6087 204.559L47.943 204.279Z" fill="#BEB8F2"/>
<path d="M172.172 76.7677L171.871 76.1695C190.487 68.7645 214.269 57.1848 227.046 50.964C237.386 45.9292 237.414 45.9431 237.732 46.1273L237.533 46.4027L237.561 46.7233C237.086 46.8223 232.811 48.9035 227.399 51.5383C214.614 57.7638 190.815 69.3517 172.172 76.7677Z" fill="#BEB8F2"/>
<path d="M184.205 61.2274C188.644 46.1624 186.762 34.3472 184.403 27.0883C181.832 19.1812 178.022 14.5094 177.44 14.1597L177.6 13.9492L177.521 13.5432C177.738 13.5092 177.909 13.6278 178.147 13.8582C181.563 17.1597 192.723 34.9026 184.918 61.3932L184.205 61.2274Z" fill="#BEB8F2"/>
<path d="M97.1838 150.707L96.5498 150.372C114.331 123.744 105.932 89.052 101.496 75.3724C101.258 74.6376 101.182 74.3996 101.168 74.2851L101.901 74.2147L101.534 74.2499L101.9 74.2124C101.913 74.2935 102.048 74.7094 102.204 75.1909C105.404 85.0563 107.346 94.8671 107.978 104.35C109.191 122.567 105.559 138.164 97.1838 150.707Z" fill="#BEB8F2"/>
<path d="M109.089 138.893L108.673 138.352C131.665 124.389 160.57 134.115 161.006 134.341C161.008 134.342 161.009 134.342 161.01 134.343L161.121 134.722L160.744 134.925L160.778 134.602L160.607 134.888C160.343 134.776 131.851 125.069 109.089 138.893Z" fill="#BEB8F2"/>
<path d="M53.518 197.58C56.5981 191.969 59.151 181.336 53.8236 162.55C53.5211 161.484 53.5211 161.484 53.6234 161.339L54.2475 161.687L53.9354 161.513L54.3008 161.509C54.3102 161.586 54.4159 161.958 54.5379 162.389C59.92 181.368 57.3144 192.158 54.1807 197.867L53.518 197.58Z" fill="#BEB8F2"/>
<path d="M62.3791 188.232L61.8153 187.811C70.2067 178.941 89.8912 177.793 100.878 177.897C101.226 177.901 101.45 177.903 101.533 177.899L101.575 178.553C101.486 178.558 101.245 178.556 100.87 178.552C90.0131 178.449 70.5759 179.569 62.3791 188.232Z" fill="#BEB8F2"/>
</g>
<path d="M19.4479 224.825C13.8032 225.119 9.18896 221.611 9.18896 217.005V50.9881C9.18896 46.3819 13.8032 42.7834 19.4479 42.9654L285.889 51.5607C290.206 51.6999 293.704 55.0689 293.704 59.0711V203.322C293.704 207.324 290.206 210.762 285.889 210.987L19.4479 224.825Z" fill="url(#paint2_linear_5_398)"/>
<path d="M193.157 243.201C188.898 241.883 185.715 238.512 184.818 234.369L178.619 205.755L125.597 207.511L119.072 237.32C118.158 241.495 121.816 245.683 126.029 247.221L148.213 255.316C152.339 256.822 156.774 257.422 161.182 257.07L208.063 253.329C209.434 253.22 210.533 252.215 210.693 250.926C210.852 249.637 211.812 248.19 210.506 247.785L193.157 243.201Z" fill="url(#paint3_linear_5_398)"/>
<path d="M193.682 241.461C189.427 240.16 186.247 236.831 185.351 232.739L179.159 204.486L127.429 206.222L120.91 235.656C119.997 239.778 122.412 243.912 126.621 245.43L148.783 253.424C152.904 254.911 157.335 255.503 161.739 255.156L208.573 251.462C209.942 251.354 211.04 250.362 211.2 249.089C211.359 247.816 210.535 246.614 209.23 246.215L193.682 241.461Z" fill="url(#paint4_linear_5_398)"/>
<path d="M21.5574 224.825C15.9128 225.119 11.2986 221.611 11.2986 217.005V50.9881C11.2986 46.3819 15.9129 42.7833 21.5574 42.9654L287.999 51.5606C292.316 51.6998 295.813 55.0689 295.813 59.0711V203.322C295.813 207.324 292.316 210.762 287.999 210.987L21.5574 224.825Z" fill="url(#paint5_linear_5_398)"/>
<path d="M287.999 54.9535L21.5575 46.8357C18.5392 46.7437 16.0863 48.6636 16.0863 51.1241V180.288V216.774C16.0863 219.235 18.5393 221.106 21.5575 220.955L287.999 207.594C290.312 207.478 292.184 205.644 292.184 203.497V170.53V58.9681C292.184 56.8213 290.312 55.024 287.999 54.9535Z" fill="url(#paint6_linear_5_398)"/>
<path d="M21.5574 206.841C20.3822 206.892 19.4253 206.155 19.4253 205.197V51.219C19.4253 50.2618 20.3822 49.5108 21.5574 49.5451L287.999 57.3287C288.901 57.3551 289.635 58.0582 289.635 58.8957V193.63C289.635 194.467 288.901 195.181 287.999 195.22L21.5574 206.841Z" fill="white"/>
<path d="M278.925 186.918L33.2448 196.51V72.5576L278.925 77.1418V186.918Z" fill="url(#paint7_linear_5_398)"/>
<path d="M278.925 73.3918L33.2448 68.3232V57.7372L278.925 64.0165V73.3918Z" fill="url(#paint8_linear_5_398)"/>
<path d="M260.266 68.2732C260.266 68.9426 259.673 69.472 258.941 69.4555C258.208 69.439 257.614 68.8823 257.614 68.212C257.614 67.5416 258.208 67.0123 258.941 67.0296C259.673 67.0471 260.266 67.6038 260.266 68.2732Z" fill="white"/>
<path d="M265.703 68.3988C265.703 69.0664 265.113 69.5942 264.385 69.5779C263.657 69.5615 263.066 69.0063 263.066 68.3379C263.066 67.6695 263.657 67.1417 264.385 67.1589C265.113 67.1762 265.703 67.7312 265.703 68.3988Z" fill="white"/>
<path d="M271.11 68.5236C271.11 69.1892 270.523 69.7157 269.8 69.6994C269.075 69.6832 268.488 69.1296 268.488 68.4631C268.488 67.7965 269.075 67.2701 269.8 67.2873C270.523 67.3045 271.11 67.8579 271.11 68.5236Z" fill="white"/>
<g opacity="0.68">
<path d="M229.201 167.135L38.6035 172.455V75.7774L229.201 79.0564V167.135Z" fill="white"/>
</g>
<path opacity="0.68" d="M276.301 104.662L232.535 104.479V79.1138L276.301 79.8668V104.662Z" fill="white"/>
<path d="M276.301 109.204L232.534 109.125V107.226L276.301 107.347V109.204Z" fill="white"/>
<path d="M260.016 112.409L232.534 112.406V110.507L260.016 110.537V112.409Z" fill="white"/>
<path opacity="0.68" d="M276.301 141.036L232.535 141.688V116.323L276.301 116.24V141.036Z" fill="white"/>
<path d="M276.301 145.578L232.534 146.334V144.435L276.301 143.721V145.578Z" fill="white"/>
<path d="M260.016 149.094L232.534 149.615V147.716L260.016 147.221V149.094Z" fill="white"/>
<path opacity="0.68" d="M276.301 177.409L232.535 178.897V153.532L276.301 152.614V177.409Z" fill="white"/>
<path d="M276.301 181.952L232.534 183.544V181.645L276.301 180.095V181.952Z" fill="white"/>
<path d="M260.016 185.778L232.534 186.824V184.925L260.016 183.906V185.778Z" fill="white"/>
<path d="M170.503 178.995L38.6035 183.348V176.992L170.503 173.031V178.995Z" fill="white"/>
<path d="M229.201 177.059L210.383 177.68V171.833L229.201 171.268V177.059Z" fill="white"/>
<path d="M207.475 177.775L188.233 178.41V172.499L207.475 171.921V177.775Z" fill="white"/>
<path d="M98.9476 188.821L38.6035 191.028V187.851L98.9476 185.733V188.821Z" fill="white"/>
<path d="M27.9787 241.102L26.7346 239.943C24.7508 238.095 24.9093 235.186 27.089 233.452L112.552 165.453L120.354 173.34L35.4778 241.295C33.3133 243.027 29.9562 242.944 27.9787 241.102Z" fill="url(#paint9_linear_5_398)"/>
<path d="M198.536 99.9067C176.979 76.3187 138.755 72.5102 113.204 92.2209C87.1831 112.293 85.0847 148.312 108.439 171.817C131.244 194.771 169.297 196.534 193.523 176.559C217.33 156.93 219.601 122.958 198.536 99.9067ZM115.87 165.886C96.4206 146.175 98.1965 116.071 119.89 99.2423C141.256 82.6681 173.347 85.7272 191.532 105.497C209.368 124.887 207.471 153.548 187.337 170.064C166.906 186.824 134.936 185.208 115.87 165.886Z" fill="url(#paint10_linear_5_398)"/>
<path opacity="0.3" d="M112.552 165.453L101.655 174.123C102.662 178.08 102.045 180.84 100.996 182.798C97.0514 190.166 85.8037 188.544 76.7527 199.007C72.2109 204.258 74.2725 205.557 69.6678 209.813C62.0552 216.849 55.487 214.16 48.7921 220.468C42.0202 226.848 44.5296 233.565 39.696 235.28C37.6282 236.014 34.3515 235.781 28.8764 232.03L27.089 233.452C24.9093 235.186 24.7508 238.095 26.7347 239.943L27.9787 241.101C29.9562 242.943 33.3133 243.027 35.4778 241.294L120.354 173.34L112.552 165.453Z" fill="url(#paint11_linear_5_398)"/>
<path d="M201.659 101.404C180.103 77.8159 141.879 74.0072 116.327 93.718C90.3069 113.791 88.2085 149.809 111.562 173.314C134.368 196.268 172.42 198.031 196.647 178.056C220.454 158.427 222.725 124.455 201.659 101.404ZM118.994 167.383C99.5445 147.672 101.32 117.568 123.014 100.739C144.38 84.1652 176.471 87.2242 194.656 106.994C212.492 126.384 210.594 155.045 190.461 171.561C170.029 188.321 138.06 186.705 118.994 167.383Z" fill="url(#paint12_linear_5_398)"/>
<path d="M199.187 103.377C178.819 81.1416 142.765 77.6043 118.697 96.2066C94.2144 115.131 92.2293 149.051 114.195 171.213C135.674 192.884 171.576 194.601 194.464 175.764C216.978 157.234 219.116 125.135 199.187 103.377ZM118.994 167.383C99.5445 147.672 101.32 117.568 123.014 100.739C144.38 84.1652 176.471 87.2242 194.656 106.994C212.492 126.384 210.594 155.045 190.461 171.561C170.029 188.321 138.06 186.705 118.994 167.383Z" fill="url(#paint13_linear_5_398)"/>
<path d="M123.62 63.0763C127.021 64.6108 131.294 63.2006 133.163 59.9265C135.032 56.6524 133.79 52.7543 130.388 51.2198C130.212 51.1402 130.032 51.0735 129.852 51.0096C130.483 49.198 130.959 47.3722 131.278 45.5458C131.473 45.5453 131.669 45.5423 131.868 45.5265C135.748 45.2184 138.827 42.0481 138.745 38.4454C138.663 34.8426 135.451 32.1717 131.571 32.4798C131.368 32.4961 131.169 32.5245 130.971 32.5558C130.565 30.7705 130.009 29.0265 129.308 27.3386C129.487 27.2458 129.664 27.1498 129.838 27.0418C133.157 24.9737 134.218 20.8927 132.207 17.9267C130.196 14.9607 125.874 14.233 122.555 16.301C122.385 16.4071 122.225 16.5215 122.067 16.6377C120.755 15.3494 119.317 14.1554 117.761 13.0658C117.87 12.9063 117.977 12.7448 118.074 12.5751C119.943 9.30104 122.386 5.72463 118.958 4.2376C111.028 0.79777 107.626 3.74402 105.757 7.01811C105.66 7.18776 105.577 7.35995 105.497 7.53251C103.589 7.05928 101.656 6.73216 99.7116 6.55179C99.7237 6.36978 99.7331 6.18741 99.729 6.00277C99.6469 2.4002 100.849 0.450391 96.9541 0.383695C88.4607 0.238218 85.5959 3.51604 85.6778 7.11852C85.6821 7.30689 85.6999 7.49098 85.7208 7.67389C83.7746 8.16739 81.8633 8.79836 80.0028 9.56128C79.9143 9.40063 79.8225 9.24088 79.7175 9.08568C77.7064 6.11972 73.3854 5.39197 70.0661 7.46027C66.7468 9.52847 65.6863 13.6094 67.6974 16.5753C67.8003 16.7274 67.9133 16.8694 68.0279 17.0096C66.5581 18.317 65.1816 19.7364 63.9098 21.2591C63.7452 21.1674 63.5783 21.0778 63.4021 20.9983C60.0008 19.4638 55.7284 20.8739 53.8594 24.148C51.9903 27.4221 53.2324 31.3203 56.6337 32.8548C56.8099 32.9344 56.9898 33.001 57.1702 33.065C56.5388 34.8766 56.0626 36.7024 55.7435 38.5288C55.5485 38.5294 55.353 38.5323 55.1544 38.548C51.2741 38.8562 48.1952 42.0264 48.2772 45.6293C48.3591 49.232 51.5712 51.9027 55.4513 51.5946C55.654 51.5785 55.8532 51.5501 56.0512 51.5187C56.4569 53.304 57.0125 55.0479 57.7136 56.7359C57.5352 56.8287 57.3576 56.9247 57.1841 57.0327C53.8649 59.1008 52.8043 63.1818 54.8155 66.1478C56.8266 69.1139 63.4827 70.4908 66.8019 68.4227C66.972 68.3167 64.797 67.553 64.9551 67.4369C66.2666 68.7253 67.7049 69.9192 69.261 71.0089C69.1518 71.1683 69.0446 71.3298 68.9479 71.4995C67.0787 74.7735 68.3209 78.6717 71.7222 80.2062C75.1235 81.7407 79.396 80.3306 81.2649 77.0565C81.3617 76.8869 81.4451 76.7146 81.5253 76.5421C83.4334 77.0153 85.3665 77.3425 87.3104 77.5228C87.2984 77.7048 87.289 77.8872 87.2931 78.0719C87.375 81.6745 90.587 84.3453 94.4671 84.0373C98.3472 83.7291 101.426 80.5588 101.344 76.9562C101.34 76.7679 101.322 76.5838 101.301 76.4009C103.247 75.9074 105.159 75.2765 107.019 74.5135C107.108 74.6741 107.199 74.8339 107.304 74.9888C109.316 77.9548 113.637 78.6827 116.956 76.6144C120.275 74.5461 121.336 70.4653 119.325 67.4992C119.222 67.3474 119.109 67.2053 118.994 67.0651C120.464 65.7578 121.84 64.3383 123.112 62.8156C123.277 62.9072 123.444 62.9968 123.62 63.0763ZM81.2238 63.5615C68.8746 57.9899 64.3647 43.8367 71.1507 31.9492C77.9368 20.0617 93.449 14.9417 105.798 20.5131C118.148 26.0846 122.657 40.2378 115.871 52.1253C109.085 64.0128 93.5732 69.1329 81.2238 63.5615Z" fill="#26264F"/>
<path d="M131.868 45.5265C135.748 45.2182 138.827 42.0479 138.745 38.4452C138.663 34.8426 135.451 32.1717 131.571 32.4799C131.368 32.496 131.169 32.5246 130.971 32.5558C130.565 30.7705 130.009 29.0266 129.308 27.3387C129.487 27.2459 129.664 27.1498 129.838 27.0417C133.157 24.9736 137.263 19.9771 134.921 17.2103C130.474 11.9589 125.874 14.233 122.555 16.3011C122.385 16.4071 122.225 16.5215 122.067 16.6375C120.756 15.3491 119.317 14.1553 117.761 13.0657C117.87 12.9062 117.977 12.7447 118.074 12.5752C119.092 10.7933 119.181 8.82885 118.509 7.15891C115.303 12.1764 112.141 17.2151 109.035 22.2811C118.888 28.6967 122.026 41.3427 115.871 52.1253C110.655 61.2626 100.284 66.3944 90.1562 65.7533C89.7047 66.7949 89.2614 67.8423 88.7777 68.8738C87.4655 71.6734 85.9746 74.4153 84.4818 77.1536C85.4211 77.3109 86.3644 77.4346 87.3103 77.5226C87.2983 77.7047 87.2889 77.887 87.293 78.0716C87.3749 81.6743 89.836 84.7348 96.8682 84.4021C100.758 84.2181 101.426 80.5586 101.344 76.9558C101.34 76.7676 101.322 76.5835 101.301 76.4006C103.247 75.9071 105.159 75.2762 107.019 74.5132C107.107 74.6739 107.199 74.8335 107.304 74.9885C109.316 77.9545 116.29 79.2138 119.609 77.1455C122.929 75.0772 121.336 70.4651 119.325 67.4991C119.222 67.3472 119.109 67.2051 118.994 67.0648C120.464 65.7576 121.841 64.338 123.112 62.8155C123.277 62.9073 123.444 62.9968 123.62 63.0762C127.021 64.6109 131.294 63.2005 133.163 59.9264C135.032 56.6525 133.79 52.7541 130.388 51.2198C130.212 51.1402 130.032 51.0735 129.852 51.0096C130.483 49.198 130.959 47.3721 131.278 45.5459C131.473 45.5452 131.669 45.5422 131.868 45.5265Z" fill="#26264F"/>
<path d="M127.278 63.4456C130.679 64.9802 134.952 63.57 136.821 60.2958C138.69 57.0217 137.448 53.1236 134.046 51.5891C133.87 51.5096 133.69 51.4428 133.51 51.3788C134.141 49.5672 134.617 47.7415 134.936 45.915C135.131 45.9146 135.327 45.9116 135.526 45.8958C139.406 45.5877 142.485 42.4174 142.403 38.8147C142.321 35.2118 139.109 32.5411 135.229 32.8492C135.026 32.8654 134.827 32.8938 134.629 32.9252C134.223 31.1398 133.667 29.3959 132.966 27.708C133.145 27.6151 133.322 27.5192 133.496 27.4111C136.815 25.343 137.876 21.262 135.864 18.296C133.853 15.33 129.532 14.6022 126.213 16.6703C126.043 16.7763 125.883 16.8908 125.725 17.0068C124.413 15.7185 122.975 14.5247 121.419 13.435C121.528 13.2755 121.635 13.114 121.732 12.9444C123.601 9.67031 122.359 5.77214 118.958 4.23768C115.557 2.70313 111.284 4.11338 109.415 7.38738C109.318 7.55703 109.235 7.72922 109.154 7.90187C107.246 7.42863 105.313 7.10142 103.37 6.92106C103.382 6.73896 103.391 6.55668 103.387 6.37204C103.305 2.76938 100.093 0.0986359 96.2127 0.406763C92.3327 0.7148 89.2538 3.88521 89.3357 7.48779C89.34 7.67606 89.3578 7.86016 89.3789 8.04307C87.4326 8.53666 85.5213 9.16754 83.6608 9.93055C83.5724 9.7698 83.4805 9.61016 83.3756 9.45496C81.3645 6.48899 77.0433 5.76124 73.724 7.82945C70.4048 9.89774 69.3443 13.9786 71.3553 16.9446C71.4584 17.0965 71.5712 17.2386 71.6859 17.3789C70.2161 18.6861 68.8395 20.1056 67.5677 21.6283C67.4031 21.5366 67.2363 21.4469 67.06 21.3675C63.6587 19.833 59.3863 21.2432 57.5173 24.5172C55.6482 27.7913 56.8903 31.6895 60.2916 33.2239C60.4679 33.3034 60.6476 33.3702 60.8281 33.4341C60.1967 35.2457 59.7206 37.0715 59.4016 38.8979C59.2066 38.8984 59.0109 38.9013 58.8122 38.917C54.9321 39.2253 51.8531 42.3955 51.9352 45.9982C52.0172 49.6009 55.2292 52.2716 59.1092 51.9636C59.3119 51.9475 59.5111 51.9191 59.7092 51.8877C60.1149 53.6729 60.6706 55.4169 61.3715 57.1049C61.1931 57.1976 61.0154 57.2936 60.842 57.4018C57.5228 59.4698 56.4624 63.5509 58.4734 66.5169C60.4844 69.4829 64.8056 70.2107 68.1247 68.1427C68.2949 68.0365 68.4549 67.9222 68.613 67.806C69.9246 69.0944 71.3628 70.2883 72.9189 71.3779C72.8096 71.5373 72.7025 71.6989 72.6057 71.8685C70.7368 75.1425 71.9788 79.0407 75.3801 80.5753C78.7814 82.1097 83.0539 80.6996 84.9228 77.4255C85.0197 77.2559 85.103 77.0836 85.1833 76.9111C87.0912 77.3843 89.0244 77.7114 90.9683 77.8918C90.9563 78.0738 90.9468 78.2562 90.951 78.4408C91.0332 82.0434 94.245 84.7143 98.1251 84.4062C102.005 84.098 105.084 80.9276 105.002 77.3251C104.998 77.1368 104.98 76.9527 104.959 76.7699C106.905 76.2764 108.817 75.6455 110.677 74.8824C110.766 75.0431 110.858 75.2028 110.963 75.3576C112.974 78.3236 117.295 79.0516 120.614 76.9833C123.933 74.915 124.994 70.8342 122.983 67.8681C122.88 67.7162 122.767 67.5741 122.652 67.434C124.122 66.1267 125.499 64.7072 126.77 63.1845C126.935 63.2764 127.102 63.3661 127.278 63.4456ZM84.8819 63.9306C72.5327 58.3591 68.0227 44.2059 74.8089 32.3184C81.595 20.4311 97.1071 15.3109 109.456 20.8825C121.806 26.454 126.315 40.6072 119.53 52.4947C112.743 64.3822 97.2313 69.5021 84.8819 63.9306Z" fill="url(#paint14_linear_5_398)"/>
<path d="M55.7112 115.862C58.2098 116.989 61.3484 115.953 62.7213 113.548C64.0943 111.143 63.1818 108.28 60.6832 107.152C60.5539 107.094 60.4217 107.045 60.2893 106.998C60.7531 105.667 61.1028 104.326 61.3373 102.984C61.4805 102.984 61.6242 102.982 61.7702 102.97C64.6205 102.744 66.8823 100.415 66.8222 97.7681C66.762 95.1215 64.4024 93.1594 61.5521 93.3858C61.4031 93.3977 61.2568 93.4186 61.1113 93.4416C60.8133 92.1301 60.4051 90.8489 59.8902 89.609C60.0212 89.5408 60.1517 89.4702 60.2792 89.3909C62.7174 87.8717 63.4965 84.8738 62.0192 82.695C60.542 80.5162 57.3676 79.9815 54.9293 81.5007C54.8043 81.5786 54.6869 81.6627 54.5706 81.7481C53.6073 80.8017 52.5506 79.9246 51.4075 79.1241C51.4878 79.007 51.5664 78.8883 51.6376 78.7637C53.0106 76.3585 54.8048 73.7312 52.2867 72.6389C46.4615 70.112 43.9625 72.2763 42.5895 74.6815C42.5183 74.8061 42.457 74.9326 42.3981 75.0594C40.9965 74.7117 39.5765 74.4714 38.1485 74.3389C38.1574 74.2052 38.1642 74.0712 38.1613 73.9356C38.101 71.2891 38.984 69.8568 36.1229 69.8078C29.8836 69.7009 27.7791 72.1088 27.8393 74.7552C27.8425 74.8936 27.8555 75.0288 27.8709 75.1632C26.4412 75.5257 25.0372 75.9891 23.6705 76.5497C23.6055 76.4317 23.538 76.3144 23.4608 76.2003C21.9835 74.0215 18.8093 73.487 16.3708 75.0063C13.9325 76.5256 13.1534 79.5235 14.6308 81.7023C14.7063 81.8139 14.7893 81.9183 14.8735 82.0212C13.7938 82.9816 12.7826 84.0244 11.8484 85.1429C11.7274 85.0756 11.6049 85.0097 11.4755 84.9513C8.97692 83.824 5.83841 84.86 4.4654 87.2651C3.09239 89.6702 4.00483 92.5338 6.5034 93.6611C6.6329 93.7195 6.76506 93.7686 6.89753 93.8156C6.43369 95.1464 6.08392 96.4876 5.84955 97.8292C5.70635 97.8297 5.56264 97.8318 5.41678 97.8433C2.5663 98.0697 0.304558 100.399 0.364761 103.045C0.425066 105.692 2.78452 107.654 5.6349 107.427C5.78383 107.416 5.9302 107.395 6.07564 107.372C6.37369 108.683 6.78182 109.964 7.29677 111.204C7.16573 111.272 7.03521 111.343 6.90785 111.422C4.46949 112.941 3.69053 115.939 5.1678 118.118C6.64517 120.297 11.5348 121.309 13.9731 119.789C14.098 119.711 12.5003 119.15 12.6164 119.065C13.5798 120.012 14.6364 120.889 15.7794 121.689C15.6992 121.806 15.6205 121.925 15.5495 122.049C14.1763 124.455 15.0889 127.318 17.5875 128.445C20.086 129.573 23.2245 128.537 24.5975 126.132C24.6687 126.007 24.7299 125.88 24.7889 125.754C26.1905 126.101 27.6105 126.342 29.0387 126.474C29.0298 126.608 29.0229 126.742 29.0259 126.878C29.0861 129.524 31.4456 131.486 34.2959 131.26C37.1462 131.033 39.4081 128.704 39.3477 126.058C39.3446 125.92 39.3316 125.784 39.316 125.65C40.7459 125.287 42.15 124.824 43.5165 124.263C43.5816 124.381 43.649 124.499 43.7262 124.613C45.2036 126.791 48.3777 127.326 50.8161 125.807C53.2545 124.287 54.0335 121.29 52.5562 119.111C52.4804 118.999 52.3975 118.895 52.3134 118.792C53.3931 117.832 54.4042 116.789 55.3386 115.67C55.4593 115.738 55.5817 115.804 55.7112 115.862ZM24.567 116.218C15.4952 112.126 12.1823 101.729 17.1673 92.996C22.1522 84.2634 33.5475 80.5023 42.6193 84.5951C51.6911 88.6879 55.0041 99.0849 50.0192 107.817C45.0341 116.55 33.6388 120.311 24.567 116.218Z" fill="#26264F"/>
<path d="M61.7702 102.97C64.6205 102.744 66.8822 100.415 66.8221 97.7681C66.7619 95.1215 64.4024 93.1595 61.5521 93.386C61.4032 93.3978 61.2568 93.4188 61.1112 93.4418C60.8134 92.1302 60.4051 90.8492 59.8901 89.6092C60.0212 89.541 60.1517 89.4704 60.2791 89.391C62.7174 87.8718 65.7337 84.2014 64.0128 82.1688C60.7466 78.3112 57.3675 79.9817 54.9293 81.5009C54.8043 81.5788 54.6868 81.6628 54.5707 81.7482C53.6073 80.8017 52.5507 79.9248 51.4075 79.1243C51.4878 79.0072 51.5664 78.8886 51.6375 78.764C52.3848 77.455 52.4505 76.012 51.9565 74.7853C49.6018 78.4712 47.2789 82.1726 44.9977 85.894C52.2351 90.607 54.5409 99.8967 50.0192 107.818C46.1876 114.53 38.5688 118.3 31.1289 117.829C30.7973 118.594 30.4716 119.363 30.1163 120.121C29.1524 122.178 28.0572 124.192 26.9605 126.203C27.6505 126.319 28.3435 126.41 29.0384 126.474C29.0295 126.608 29.0227 126.742 29.0256 126.878C29.0858 129.524 30.8938 131.773 36.0596 131.528C38.9173 131.393 39.4079 128.705 39.3476 126.058C39.3444 125.92 39.3314 125.785 39.316 125.65C40.7457 125.288 42.1499 124.824 43.5165 124.264C43.5815 124.382 43.649 124.499 43.7261 124.613C45.2035 126.792 50.3271 127.717 52.7654 126.198C55.2039 124.678 54.0335 121.29 52.5561 119.111C52.4804 119 52.3975 118.895 52.3134 118.792C53.393 117.832 54.4043 116.789 55.3385 115.671C55.4594 115.738 55.582 115.804 55.7114 115.862C58.21 116.99 61.3486 115.954 62.7215 113.548C64.0944 111.143 63.1821 108.28 60.6834 107.152C60.554 107.094 60.4218 107.045 60.2894 106.998C60.7532 105.667 61.1029 104.326 61.3373 102.984C61.4804 102.984 61.6241 102.982 61.7702 102.97Z" fill="#26264F"/>
<path d="M58.3984 116.133C60.897 117.261 64.0355 116.225 65.4086 113.82C66.7815 111.414 65.8691 108.551 63.3705 107.424C63.241 107.365 63.109 107.316 62.9765 107.269C63.4404 105.938 63.7901 104.597 64.0245 103.255C64.1677 103.255 64.3115 103.253 64.4574 103.241C67.3078 103.015 69.5696 100.686 69.5094 98.0394C69.4492 95.3928 67.0897 93.4308 64.2393 93.6572C64.0904 93.6691 63.944 93.69 63.7985 93.713C63.5005 92.4015 63.0923 91.1204 62.5774 89.8804C62.7085 89.8122 62.8389 89.7418 62.9664 89.6624C65.4046 88.1432 66.1837 85.1452 64.7064 82.9664C63.2291 80.7876 60.0548 80.253 57.6165 81.7723C57.4915 81.8501 57.3741 81.9342 57.2579 82.0195C56.2945 81.0731 55.2378 80.1961 54.0947 79.3957C54.175 79.2785 54.2536 79.1599 54.3249 79.0353C55.6979 76.6302 54.7855 73.7666 52.2869 72.6393C49.7883 71.512 46.6498 72.548 45.2768 74.9531C45.2057 75.0777 45.1443 75.2043 45.0854 75.331C43.6839 74.9834 42.2639 74.743 40.8359 74.6106C40.8448 74.4768 40.8516 74.3429 40.8486 74.2072C40.7883 71.5607 38.4288 69.5987 35.5784 69.8251C32.7281 70.0513 30.4663 72.3803 30.5265 75.0268C30.5297 75.1651 30.5427 75.3003 30.5582 75.4347C29.1285 75.7973 27.7244 76.2608 26.3577 76.8213C26.2927 76.7033 26.2252 76.586 26.1482 76.4719C24.6709 74.2932 21.4965 73.7585 19.0581 75.2779C16.6198 76.7972 15.8408 79.7951 17.3181 81.9739C17.3938 82.0855 17.4766 82.1899 17.5608 82.2928C16.4811 83.2532 15.4699 84.2959 14.5356 85.4146C14.4146 85.3472 14.2921 85.2813 14.1626 85.223C11.664 84.0957 8.52551 85.1317 7.1526 87.5368C5.77959 89.942 6.69203 92.8056 9.1906 93.9328C9.3201 93.9912 9.45216 94.0402 9.58473 94.0873C9.1209 95.4181 8.77113 96.7593 8.53676 98.101C8.39356 98.1015 8.24985 98.1036 8.10378 98.115C5.25351 98.3416 2.99166 100.67 3.05186 103.317C3.11207 105.964 5.47163 107.925 8.3219 107.699C8.47083 107.687 8.6172 107.666 8.76264 107.643C9.06059 108.955 9.46882 110.236 9.98377 111.476C9.85273 111.544 9.72221 111.615 9.59485 111.694C7.15649 113.213 6.37753 116.211 7.8548 118.39C9.33217 120.569 12.5065 121.103 14.9447 119.584C15.0697 119.506 15.1873 119.422 15.3034 119.337C16.2669 120.283 17.3234 121.16 18.4665 121.961C18.3863 122.078 18.3076 122.197 18.2365 122.321C16.8635 124.726 17.776 127.59 20.2746 128.717C22.7731 129.845 25.9116 128.809 27.2846 126.404C27.3558 126.279 27.417 126.152 27.476 126.026C28.8776 126.373 30.2978 126.614 31.7258 126.746C31.7169 126.88 31.7099 127.014 31.713 127.15C31.7734 129.796 34.1327 131.758 36.983 131.532C39.8333 131.305 42.0951 128.976 42.0348 126.33C42.0318 126.192 42.0187 126.056 42.0033 125.922C43.433 125.559 44.8371 125.096 46.2038 124.535C46.2688 124.653 46.3363 124.771 46.4135 124.885C47.8908 127.063 51.065 127.598 53.5034 126.079C55.9418 124.559 56.7208 121.562 55.2436 119.383C55.1678 119.271 55.0849 119.167 55.0007 119.064C56.0805 118.104 57.0917 117.061 58.026 115.942C58.1465 116.009 58.269 116.075 58.3984 116.133ZM27.2543 116.49C18.1825 112.397 14.8695 102 19.8546 93.2674C24.8396 84.5349 36.2348 80.7737 45.3066 84.8665C54.3784 88.9593 57.6914 99.3563 52.7065 108.089C47.7213 116.821 36.3261 120.583 27.2543 116.49Z" fill="url(#paint15_linear_5_398)"/>
<path d="M275.547 158.711L284.186 244.885C284.317 246.189 283.297 247.35 281.918 247.463L235.181 251.742C232.385 251.874 230.906 250.526 230.78 249.171L222.489 159.701C222.367 158.38 223.755 157.135 226.518 157.045L272.826 156.44C274.196 156.416 275.42 157.438 275.547 158.711Z" fill="url(#paint16_linear_5_398)"/>
<path d="M277.67 158.497L286.387 245.186C286.519 246.499 285.494 247.666 284.107 247.78L235.612 251.759C234.125 251.881 232.803 250.865 232.676 249.501L224.311 159.492C224.188 158.163 225.297 157.055 226.773 157.03L274.933 156.213C276.311 156.189 277.542 157.217 277.67 158.497Z" fill="url(#paint17_linear_5_398)"/>
<path d="M276.593 163.281L284.654 243.632C284.777 244.857 283.819 245.945 282.523 246.049L236.929 249.73C235.545 249.842 234.314 248.894 234.196 247.624L226.44 164.384C226.325 163.144 227.357 162.107 228.731 162.079L274.034 161.153C275.322 161.126 276.473 162.084 276.593 163.281Z" fill="white"/>
<path d="M276.593 163.281C276.472 162.084 275.322 161.126 274.034 161.153L228.731 162.079C227.357 162.107 226.325 163.144 226.441 164.384L227.55 176.297L277.79 175.218L276.593 163.281Z" fill="url(#paint18_linear_5_398)"/>
<path d="M252.404 159.23C252.448 159.682 252.083 160.056 251.589 160.066C251.094 160.076 250.658 159.716 250.614 159.264C250.57 158.812 250.936 158.438 251.43 158.428C251.924 158.419 252.36 158.778 252.404 159.23Z" fill="url(#paint19_linear_5_398)"/>
<path d="M258.67 208.213L236.002 209.208L232.872 180.726L255.667 180.209L258.67 208.213Z" fill="url(#paint20_linear_5_398)"/>
<path d="M275.482 207.474L262.165 208.059L259.181 180.129L272.57 179.826L275.482 207.474Z" fill="url(#paint21_linear_5_398)"/>
<path d="M277.829 229.758L238.524 232.158L236.409 212.913L275.861 211.072L277.829 229.758Z" fill="url(#paint22_linear_5_398)"/>
<path d="M279.054 241.39L239.84 244.137L238.893 235.516L278.172 233.019L279.054 241.39Z" fill="url(#paint23_linear_5_398)"/>
<g opacity="0.48">
<path d="M266.018 218.008C261.317 203.405 247.609 204.865 243.51 191.67C240.143 180.833 247.906 175.12 243.197 166.047C240.983 161.78 237.103 158.895 233.079 156.923L226.773 157.03C225.297 157.055 224.188 158.163 224.311 159.491L232.676 249.501C232.802 250.865 234.125 251.881 235.612 251.759L275.374 248.497C272.831 245.629 270.419 242.12 268.745 237.905C265.201 228.983 268.618 226.083 266.018 218.008Z" fill="white"/>
</g>
<defs>
<linearGradient id="paint0_linear_5_398" x1="282.623" y1="80.4828" x2="-86.8863" y2="70.4684" gradientUnits="userSpaceOnUse">
<stop stop-color="#FFC444"/>
<stop offset="0.9964" stop-color="#F36F56"/>
</linearGradient>
<linearGradient id="paint1_linear_5_398" x1="210.959" y1="9.99281" x2="84.3663" y2="218.238" gradientUnits="userSpaceOnUse">
<stop stop-color="#AA80F9"/>
<stop offset="0.9964" stop-color="#6165D7"/>
</linearGradient>
<linearGradient id="paint2_linear_5_398" x1="38.9174" y1="137.496" x2="86.0323" y2="131.959" gradientUnits="userSpaceOnUse">
<stop offset="0.0036" stop-color="#26264F"/>
<stop offset="1" stop-color="#444B8C"/>
</linearGradient>
<linearGradient id="paint3_linear_5_398" x1="139.639" y1="265.823" x2="148.135" y2="252.135" gradientUnits="userSpaceOnUse">
<stop stop-color="#444B8C"/>
<stop offset="0.9964" stop-color="#26264F"/>
</linearGradient>
<linearGradient id="paint4_linear_5_398" x1="169.944" y1="262.555" x2="157.751" y2="188.102" gradientUnits="userSpaceOnUse">
<stop stop-color="#444B8C"/>
<stop offset="0.9964" stop-color="#26264F"/>
</linearGradient>
<linearGradient id="paint5_linear_5_398" x1="207.74" y1="58.4372" x2="272.829" y2="-46.0603" gradientUnits="userSpaceOnUse">
<stop stop-color="#444B8C"/>
<stop offset="0.9964" stop-color="#26264F"/>
</linearGradient>
<linearGradient id="paint6_linear_5_398" x1="174.438" y1="69.988" x2="97.1796" y2="346.01" gradientUnits="userSpaceOnUse">
<stop stop-color="#444B8C"/>
<stop offset="0.9964" stop-color="#26264F"/>
</linearGradient>
<linearGradient id="paint7_linear_5_398" x1="179.637" y1="86.5647" x2="105.623" y2="258.235" gradientUnits="userSpaceOnUse">
<stop offset="0.0036" stop-color="#E38DDD"/>
<stop offset="1" stop-color="#9571F6"/>
</linearGradient>
<linearGradient id="paint8_linear_5_398" x1="155.894" y1="66.9698" x2="151.688" y2="106.13" gradientUnits="userSpaceOnUse">
<stop stop-color="#FF9085"/>
<stop offset="1" stop-color="#FB6FBB"/>
</linearGradient>
<linearGradient id="paint9_linear_5_398" x1="25.3446" y1="203.997" x2="120.354" y2="203.997" gradientUnits="userSpaceOnUse">
<stop stop-color="#FFC444"/>
<stop offset="0.9964" stop-color="#F36F56"/>
</linearGradient>
<linearGradient id="paint10_linear_5_398" x1="92.2163" y1="134.96" x2="212.967" y2="134.96" gradientUnits="userSpaceOnUse">
<stop stop-color="#FFC444"/>
<stop offset="0.9964" stop-color="#F36F56"/>
</linearGradient>
<linearGradient id="paint11_linear_5_398" x1="25.3446" y1="203.997" x2="120.354" y2="203.997" gradientUnits="userSpaceOnUse">
<stop stop-color="#FFC444"/>
<stop offset="0.9964" stop-color="#F36F56"/>
</linearGradient>
<linearGradient id="paint12_linear_5_398" x1="195.849" y1="183.475" x2="148.777" y2="113.638" gradientUnits="userSpaceOnUse">
<stop stop-color="#FFC444"/>
<stop offset="0.9964" stop-color="#F36F56"/>
</linearGradient>
<linearGradient id="paint13_linear_5_398" x1="98.9431" y1="136.493" x2="212.845" y2="136.493" gradientUnits="userSpaceOnUse">
<stop stop-color="#FFC444"/>
<stop offset="0.9964" stop-color="#F36F56"/>
</linearGradient>
<linearGradient id="paint14_linear_5_398" x1="51.9338" y1="42.4066" x2="142.405" y2="42.4066" gradientUnits="userSpaceOnUse">
<stop stop-color="#AA80F9"/>
<stop offset="0.9964" stop-color="#6165D7"/>
</linearGradient>
<linearGradient id="paint15_linear_5_398" x1="3.0505" y1="100.678" x2="69.5104" y2="100.678" gradientUnits="userSpaceOnUse">
<stop stop-color="#AA80F9"/>
<stop offset="0.9964" stop-color="#6165D7"/>
</linearGradient>
<linearGradient id="paint16_linear_5_398" x1="220.66" y1="202.998" x2="285.848" y2="205.728" gradientUnits="userSpaceOnUse">
<stop stop-color="#444B8C"/>
<stop offset="0.9964" stop-color="#26264F"/>
</linearGradient>
<linearGradient id="paint17_linear_5_398" x1="248.344" y1="217.829" x2="256.436" y2="195.234" gradientUnits="userSpaceOnUse">
<stop stop-color="#444B8C"/>
<stop offset="0.9964" stop-color="#26264F"/>
</linearGradient>
<linearGradient id="paint18_linear_5_398" x1="238.879" y1="186.435" x2="267.645" y2="139.489" gradientUnits="userSpaceOnUse">
<stop stop-color="#FF9085"/>
<stop offset="1" stop-color="#FB6FBB"/>
</linearGradient>
<linearGradient id="paint19_linear_5_398" x1="253.024" y1="155.979" x2="203.349" y2="291.564" gradientUnits="userSpaceOnUse">
<stop stop-color="#FFC444"/>
<stop offset="0.9964" stop-color="#F36F56"/>
</linearGradient>
<linearGradient id="paint20_linear_5_398" x1="240.442" y1="186.169" x2="263.221" y2="239.485" gradientUnits="userSpaceOnUse">
<stop offset="0.0036" stop-color="#E38DDD"/>
<stop offset="1" stop-color="#9571F6"/>
</linearGradient>
<linearGradient id="paint21_linear_5_398" x1="251.779" y1="169.255" x2="277.999" y2="230.625" gradientUnits="userSpaceOnUse">
<stop offset="0.0036" stop-color="#E38DDD"/>
<stop offset="1" stop-color="#9571F6"/>
</linearGradient>
<linearGradient id="paint22_linear_5_398" x1="243.438" y1="199.834" x2="261.587" y2="242.311" gradientUnits="userSpaceOnUse">
<stop offset="0.0036" stop-color="#E38DDD"/>
<stop offset="1" stop-color="#9571F6"/>
</linearGradient>
<linearGradient id="paint23_linear_5_398" x1="249.869" y1="224.108" x2="261.97" y2="252.432" gradientUnits="userSpaceOnUse">
<stop offset="0.0036" stop-color="#E38DDD"/>
<stop offset="1" stop-color="#9571F6"/>
</linearGradient>
</defs>
</svg>
