<svg width="321" height="253" viewBox="0 0 321 253" fill="none" xmlns="http://www.w3.org/2000/svg">
<g clip-path="url(#clip0_22_123)">
<path opacity="0.1" d="M277.099 195.708H309.316C311.065 194.759 312.265 192.832 312.265 190.61C312.265 187.734 310.255 185.352 307.638 184.943C307.642 184.85 307.646 184.757 307.646 184.66C307.646 181.296 304.998 178.567 301.732 178.567C301.391 178.567 301.058 178.597 300.729 178.656C299.321 176.088 296.572 174.347 293.414 174.347C289.735 174.347 286.613 176.712 285.518 179.993C285.172 179.921 284.815 179.879 284.454 179.879C281.316 179.879 278.773 182.717 278.773 186.216C278.773 186.609 278.805 186.997 278.865 187.368C276.489 187.528 274.612 189.438 274.612 191.774C274.612 193.49 275.623 194.974 277.099 195.708Z" fill="white"/>
<path d="M299.011 143.181C299.011 65.2698 238.908 2.10834 164.765 2.10834C90.6263 2.10834 30.5231 65.2698 30.5231 143.181C30.5231 187.625 50.088 227.261 80.6512 253.118H248.883C279.447 227.261 299.011 187.625 299.011 143.181Z" fill="url(#paint0_linear_22_123)"/>
<path opacity="0.4" d="M202.098 88.3602C202.098 89.2289 201.837 89.9288 201.516 89.9288H168.513C168.192 89.9288 167.931 89.2247 167.931 88.3602C167.931 87.4916 168.192 86.7916 168.513 86.7916H201.516C201.837 86.7916 202.098 87.4958 202.098 88.3602Z" fill="white"/>
<path opacity="0.4" d="M267.674 74.2091C267.674 75.0778 266.911 75.7777 265.973 75.7777H169.632C168.694 75.7777 167.931 75.0735 167.931 74.2091C167.931 73.3405 168.694 72.6405 169.632 72.6405H265.973C266.911 72.6405 267.674 73.3447 267.674 74.2091ZM233.973 80.8799C233.973 81.7485 233.467 82.4485 232.845 82.4485H169.055C168.433 82.4485 167.927 81.7443 167.927 80.8799C167.927 80.0113 168.433 79.3113 169.055 79.3113H232.845C233.467 79.3113 233.973 80.0113 233.973 80.8799Z" fill="white"/>
<path fill-rule="evenodd" clip-rule="evenodd" d="M120.664 245.609V245.246H142.761L120.664 245.609ZM113.766 245.609L94.7551 245.246H113.766V245.609Z" fill="white"/>
<path d="M258.056 214.021C258.056 214.021 257.189 208.257 257.274 207.017C257.358 205.778 257.683 199.229 257.683 199.229L258.521 198.445C258.521 198.445 257.695 205.74 257.799 207.894C257.9 210.045 258.056 214.021 258.056 214.021Z" fill="url(#paint1_linear_22_123)"/>
<path fill-rule="evenodd" clip-rule="evenodd" d="M222.565 156.771H227.212V253.013H222.565V156.771Z" fill="#1289CC"/>
<path fill-rule="evenodd" clip-rule="evenodd" d="M220.282 156.771H224.929V253.013H220.282V156.771Z" fill="black"/>
<path fill-rule="evenodd" clip-rule="evenodd" d="M237.56 156.771H242.186V253.013H237.56V156.771Z" fill="#1289CC"/>
<path fill-rule="evenodd" clip-rule="evenodd" d="M235.277 156.771H239.903V253.013H235.277V156.771Z" fill="black"/>
<path fill-rule="evenodd" clip-rule="evenodd" d="M124.199 156.771H128.845V253.013H124.199V156.771Z" fill="#125CAE"/>
<path fill-rule="evenodd" clip-rule="evenodd" d="M121.92 156.771H126.566V253.013H121.92V156.771Z" fill="black"/>
<path fill-rule="evenodd" clip-rule="evenodd" d="M139.194 156.771H143.82V253.013H139.194V156.771Z" fill="#1289CC"/>
<path fill-rule="evenodd" clip-rule="evenodd" d="M136.915 156.771H141.541V253.013H136.915V156.771Z" fill="black"/>
<path fill-rule="evenodd" clip-rule="evenodd" d="M104.923 152.778H251.158V162.312H104.923V152.778Z" fill="black"/>
<path fill-rule="evenodd" clip-rule="evenodd" d="M170.222 118.476L215.227 115.145L215.945 116.802L210.042 150.64H207.968L163.485 153.508L170.222 118.476Z" fill="url(#paint2_linear_22_123)"/>
<path fill-rule="evenodd" clip-rule="evenodd" d="M168.649 115.145H215.066L208.329 150.198H161.908L168.649 115.145Z" fill="black"/>
<path fill-rule="evenodd" clip-rule="evenodd" d="M195.726 150.134H208.466V152.774H195.726V150.134Z" fill="url(#paint3_linear_22_123)"/>
<path fill-rule="evenodd" clip-rule="evenodd" d="M152.816 150.134H195.726V152.774H152.816V150.134Z" fill="#431CA3"/>
<path fill-rule="evenodd" clip-rule="evenodd" d="M170.222 117.177L164.26 148.144H206.732L212.695 117.177H170.222Z" fill="#3F2759"/>
<path fill-rule="evenodd" clip-rule="evenodd" d="M178.039 152.778C179.475 152.964 182.505 152.483 184.659 151.02C186.794 149.553 188.487 148.161 188.487 148.161C188.487 148.161 193.138 148.798 193.435 147.68C193.563 146.188 187.408 144.421 186.553 144.315C185.674 144.21 178.46 145.277 177.722 146.053C176.983 146.824 178.039 152.778 178.039 152.778ZM153.992 148.524C155.428 148.713 158.458 148.233 160.592 146.765C162.727 145.298 164.761 143.16 164.761 143.16C164.761 143.16 169.408 143.62 169.307 143.16C169.187 142.722 163.365 140.162 162.486 140.061C161.627 139.955 154.393 141.026 153.655 141.802C152.916 142.57 153.992 148.524 153.992 148.524Z" fill="white"/>
<path fill-rule="evenodd" clip-rule="evenodd" d="M162.426 142.616C162.883 143.223 165.797 145.509 165.239 146.386C164.681 147.288 163.345 147.663 161.888 146.554C160.432 145.445 159.517 144.143 159.914 143.704C160.315 143.265 162.426 142.616 162.426 142.616Z" fill="white"/>
<path fill-rule="evenodd" clip-rule="evenodd" d="M100.437 112.421C96.0111 114.305 97.0664 123.274 99.0806 129.709C101.075 136.144 121.751 151.332 127.874 153.01C133.997 154.667 157.743 146.871 157.743 146.871C159.356 143.413 157.964 139.745 155.031 140.541C155.031 140.541 131.883 144.353 128.412 140.145C125.619 136.768 105.123 110.43 100.437 112.421Z" fill="url(#paint4_linear_22_123)"/>
<path fill-rule="evenodd" clip-rule="evenodd" d="M119.179 100.77C111.941 116.085 97.0664 110.974 93.5595 96.3298C90.0486 81.7021 89.1337 69.069 101.336 66.8468C114.593 64.4349 126.438 85.4508 119.179 100.77Z" fill="url(#paint5_linear_22_123)"/>
<path fill-rule="evenodd" clip-rule="evenodd" d="M96.5287 101.107C97.905 105.653 97.4837 117.847 97.4837 117.847C97.4837 117.847 117.065 123.839 116.467 121.073C114.075 109.861 112.86 100.057 110.665 98.0038C108.851 96.3255 104.385 101.963 96.5287 101.107Z" fill="white"/>
<path fill-rule="evenodd" clip-rule="evenodd" d="M136.425 239.148C136.425 239.148 140.63 244.491 146.075 246.882C151.52 249.272 153.972 250.297 153.093 251.765C152.214 253.232 145.236 252.54 139.972 252.73C134.728 252.92 131.181 253.337 131 251.579C130.82 249.842 131.658 240.181 131.658 240.181L136.425 239.148Z" fill="black"/>
<path fill-rule="evenodd" clip-rule="evenodd" d="M128.769 197.576C128.97 203.568 130.904 248.505 130.904 248.505C132.256 250.145 141.196 246.776 141.822 244.495C141.822 244.495 145.658 194.473 144.161 194.241C142.689 194.034 128.769 197.576 128.769 197.576Z" fill="url(#paint6_linear_22_123)"/>
<path fill-rule="evenodd" clip-rule="evenodd" d="M182.368 239.359C182.368 239.359 186.577 244.702 191.998 247.114C197.443 249.504 199.895 250.508 199.016 251.996C198.137 253.464 191.16 252.751 185.915 252.941C180.651 253.131 177.104 253.548 176.923 251.811C176.743 250.053 177.581 240.392 177.581 240.392L182.368 239.359Z" fill="black"/>
<path fill-rule="evenodd" clip-rule="evenodd" d="M99.7588 179.491C99.1208 184.163 92.3597 191.479 100.597 198.791C108.831 206.102 161.852 199.921 162.53 200.907C163.208 201.873 176.329 249.281 176.329 249.281C176.329 249.281 187.681 248.906 187.087 244.023C182.705 231.305 183.427 190.703 174.556 186.259C165.696 181.818 99.7588 179.491 99.7588 179.491Z" fill="url(#paint7_linear_22_123)"/>
<path fill-rule="evenodd" clip-rule="evenodd" d="M121.491 113.635C113.895 111.518 91.1921 109.81 88.1507 116.633C81.0887 132.475 86.7102 193.347 96.5408 194.35C102.86 195 134.23 193.992 135.285 182.029C136.666 166.293 122.807 143.535 121.491 113.635Z" fill="url(#paint8_linear_22_123)"/>
<path fill-rule="evenodd" clip-rule="evenodd" d="M87.5447 163.307H95.2407V203.454H87.5447V163.307Z" fill="white"/>
<path fill-rule="evenodd" clip-rule="evenodd" d="M85.9076 162.983H93.6036V203.129H85.9076V162.983Z" fill="black"/>
<path fill-rule="evenodd" clip-rule="evenodd" d="M121.49 113.635C117.065 115.52 118.1 124.51 120.114 130.944C122.128 137.358 142.805 152.546 148.928 154.225C155.051 155.882 179.535 152.635 179.535 152.635C181.132 149.177 179.756 145.509 176.803 146.306C176.803 146.306 152.916 145.572 149.446 141.36C146.677 137.982 126.157 111.645 121.49 113.635Z" fill="url(#paint9_linear_22_123)"/>
<path fill-rule="evenodd" clip-rule="evenodd" d="M113.795 81.4491C112.378 79.5643 116.246 87.441 115.07 90.7511C115.091 87.2091 106.917 82.9334 110.067 92.5516C110.448 93.7239 110.922 98.7375 110.922 98.7375C110.841 100.804 100.786 107.044 97.4677 104.641C94.4583 102.798 89.6914 95.381 86.6419 87.0615C83.5724 78.742 88.9531 74.6772 88.9531 74.6772C88.9531 74.6772 88.2148 72.5604 90.6464 68.5799C92.5403 65.4385 120.776 59.2147 119.26 72.9146C118.939 75.7482 116.11 78.2023 113.795 81.4491Z" fill="black"/>
<path fill-rule="evenodd" clip-rule="evenodd" d="M80.6031 130.59H109.89C112.009 130.59 113.758 133.061 113.758 136.08V159.044C113.758 162.063 112.009 164.534 109.89 164.534H80.6031C78.4685 164.534 76.723 162.063 76.723 159.044V136.08C76.723 133.061 78.4685 130.59 80.6031 130.59Z" fill="white"/>
<path fill-rule="evenodd" clip-rule="evenodd" d="M77.7262 130.658H107.013C109.132 130.658 110.881 133.129 110.881 136.148V159.112C110.881 162.131 109.132 164.602 107.013 164.602H77.7262C75.5915 164.602 73.8461 162.131 73.8461 159.112V136.148C73.8421 133.129 75.5915 130.658 77.7262 130.658ZM113.766 205.204H120.664V246.127H113.766V205.204Z" fill="black"/>
<path fill-rule="evenodd" clip-rule="evenodd" d="M92.6085 245.246H142.717V248.117H92.6085V245.246Z" fill="black"/>
<path fill-rule="evenodd" clip-rule="evenodd" d="M141.661 252.684C143.696 252.684 145.329 250.963 145.329 248.851C145.329 246.713 143.696 244.997 141.661 244.997C139.647 244.997 138.014 246.713 138.014 248.851C138.01 250.968 139.647 252.684 141.661 252.684ZM116.772 252.599C118.806 252.599 120.439 250.879 120.439 248.766C120.439 246.629 118.802 244.912 116.772 244.912C114.758 244.912 113.124 246.629 113.124 248.766C113.12 250.879 114.758 252.599 116.772 252.599ZM92.769 252.684C94.7833 252.684 96.4364 250.963 96.4364 248.851C96.4364 246.713 94.7833 244.997 92.769 244.997C90.7547 244.997 89.1016 246.713 89.1016 248.851C89.1016 250.968 90.7547 252.684 92.769 252.684ZM84.8644 198.791H149.546C151.998 198.791 153.992 200.886 153.992 203.442C153.992 206.018 151.998 208.114 149.546 208.114H84.8644C82.4328 208.114 80.4386 206.018 80.4386 203.442C80.4386 200.886 82.4328 198.791 84.8644 198.791Z" fill="black"/>
<path fill-rule="evenodd" clip-rule="evenodd" d="M95.8948 112.454C95.9951 111.113 96.8979 107.339 96.8979 107.339C96.8979 107.339 111.572 106.29 115.062 108.01C115.608 108.28 118.999 113.53 118.999 113.53C109.746 111.767 101.829 111.683 95.8948 112.454Z" fill="#BCD8FA"/>
<path fill-rule="evenodd" clip-rule="evenodd" d="M170.222 117.177H212.695L212.426 118.564L169.941 118.649L170.222 117.177ZM206.515 122.001C206.515 122.212 206.355 122.38 206.154 122.38H172.574C172.373 122.38 172.213 122.212 172.213 122.001C172.213 121.79 172.373 121.621 172.574 121.621H206.154C206.355 121.621 206.515 121.79 206.515 122.001ZM199.919 124.156C199.919 124.366 199.786 124.535 199.622 124.535H172.092C171.928 124.535 171.795 124.366 171.795 124.156C171.795 123.945 171.928 123.776 172.092 123.776H199.622C199.786 123.776 199.919 123.949 199.919 124.156ZM199.51 126.82C199.51 127.031 199.377 127.2 199.213 127.2H171.683C171.518 127.2 171.386 127.031 171.386 126.82C171.386 126.61 171.518 126.441 171.683 126.441H199.213C199.377 126.441 199.51 126.61 199.51 126.82ZM205.147 129.152C205.147 129.363 204.987 129.532 204.786 129.532H171.169C170.969 129.532 170.808 129.363 170.808 129.152C170.808 128.941 170.969 128.773 171.169 128.773H204.786C204.987 128.773 205.147 128.946 205.147 129.152ZM203.903 134.706C203.903 134.916 203.743 135.085 203.542 135.085H169.925C169.725 135.085 169.564 134.916 169.564 134.706C169.564 134.495 169.725 134.326 169.925 134.326H203.542C203.739 134.326 203.903 134.495 203.903 134.706ZM191.733 131.788C191.733 131.999 191.633 132.167 191.509 132.167H170.583C170.459 132.167 170.359 131.999 170.359 131.788C170.359 131.577 170.459 131.408 170.583 131.408H191.509C191.633 131.408 191.733 131.577 191.733 131.788ZM184.74 137.126C184.74 137.337 184.667 137.505 184.579 137.505H169.472C169.384 137.505 169.311 137.337 169.311 137.126C169.311 136.915 169.384 136.746 169.472 136.746H184.575C184.667 136.746 184.74 136.915 184.74 137.126ZM196.271 140.052C196.271 140.263 196.143 140.432 195.983 140.432H168.938C168.778 140.432 168.649 140.263 168.649 140.052C168.649 139.842 168.782 139.673 168.938 139.673H195.983C196.139 139.673 196.271 139.842 196.271 140.052Z" fill="#1E8191"/>
<path d="M156.062 45.7213C156.062 46.0291 155.825 46.2779 155.533 46.2779C155.24 46.2779 155.003 46.0291 155.003 45.7213C155.003 45.4135 155.24 45.1647 155.533 45.1647C155.825 45.1647 156.062 45.4135 156.062 45.7213ZM194.061 80.2347C194.061 80.5426 193.824 80.7913 193.531 80.7913C193.238 80.7913 192.997 80.5426 192.997 80.2347C192.997 79.9269 193.234 79.6781 193.531 79.6781C193.828 79.6781 194.061 79.9227 194.061 80.2347ZM138.544 50.2079C138.544 50.5157 138.307 50.7645 138.014 50.7645C137.721 50.7645 137.484 50.5157 137.484 50.2079C137.484 49.9 137.721 49.647 138.014 49.647C138.307 49.6513 138.544 49.9 138.544 50.2079ZM95.7704 49.6513C95.7704 49.9591 95.5336 50.2079 95.2407 50.2079C94.9478 50.2079 94.7111 49.9591 94.7111 49.6513C94.7111 49.3434 94.9478 49.0947 95.2407 49.0947C95.5336 49.0904 95.7704 49.3434 95.7704 49.6513ZM246.384 116.068C246.384 116.376 246.147 116.625 245.854 116.625C245.561 116.625 245.32 116.376 245.32 116.068C245.32 115.76 245.557 115.511 245.854 115.511C246.151 115.511 246.384 115.76 246.384 116.068ZM248.129 78.8559L248.695 80.0619L249.959 80.2516L249.044 81.1919L249.261 82.516L248.129 81.8919L246.998 82.516L247.21 81.1919L246.295 80.2516L247.563 80.0619L248.129 78.8559ZM117.045 29.9299L117.751 31.4353L119.332 31.6756L118.188 32.8478L118.457 34.505L117.045 33.7207L115.628 34.505L115.897 32.8478L114.753 31.6756L116.334 31.4353L117.045 29.9299ZM275.518 103.646L276.229 105.151L277.81 105.391L276.666 106.564L276.935 108.221L275.518 107.436L274.106 108.221L274.375 106.564L273.231 105.391L274.812 105.151L275.518 103.646Z" fill="white"/>
<path d="M66.8403 101.141C67.8752 101.141 68.7141 100.259 68.7141 99.1718C68.7141 98.0842 67.8752 97.2026 66.8403 97.2026C65.8054 97.2026 64.9664 98.0842 64.9664 99.1718C64.9664 100.259 65.8054 101.141 66.8403 101.141Z" fill="white"/>
<path d="M209.027 57.3551C216.29 65.021 228.087 65.0547 235.385 57.4268C242.68 49.7988 242.712 37.3976 235.454 29.7317C228.195 22.0658 216.394 22.0321 209.099 29.66C201.801 37.288 201.769 49.6892 209.027 57.3551Z" fill="white"/>
<path d="M33.4723 149.295L164.26 148.144L167.157 148.258L206.732 148.144L212.695 117.177L53.5629 31.0009" fill="url(#paint10_linear_22_123)"/>
<path opacity="0.2" d="M200.477 48.8923C198.98 48.8923 197.58 49.3224 196.384 50.0729C196.099 45.6876 192.624 42.2257 188.383 42.2257C187.348 42.2257 186.361 42.4323 185.454 42.8076C184.298 38.7427 180.715 35.7784 176.47 35.7784C171.294 35.7784 167.093 40.1891 167.093 45.6328C167.093 45.7719 167.097 45.9111 167.105 46.046H167.093C161.916 46.046 157.715 50.4566 157.715 55.9004C157.715 61.3399 161.912 65.7547 167.093 65.7547C167.418 65.7547 167.735 65.7378 168.052 65.7041H199.602C199.891 65.7378 200.18 65.7547 200.477 65.7547C204.906 65.7547 208.498 61.9808 208.498 57.3256C208.498 52.6662 204.906 48.8923 200.477 48.8923Z" fill="url(#paint11_linear_22_123)"/>
</g>
<defs>
<linearGradient id="paint0_linear_22_123" x1="164.767" y1="-0.563343" x2="164.767" y2="253.383" gradientUnits="userSpaceOnUse">
<stop stop-color="#7700BB"/>
<stop offset="1"/>
</linearGradient>
<linearGradient id="paint1_linear_22_123" x1="257.265" y1="206.23" x2="258.518" y2="206.23" gradientUnits="userSpaceOnUse">
<stop offset="0.041" stop-color="#100060"/>
<stop offset="1" stop-color="#090E96"/>
</linearGradient>
<linearGradient id="paint2_linear_22_123" x1="163.485" y1="134.327" x2="215.944" y2="134.327" gradientUnits="userSpaceOnUse">
<stop stop-color="#A1BAFF"/>
<stop offset="0.433" stop-color="white"/>
</linearGradient>
<linearGradient id="paint3_linear_22_123" x1="195.726" y1="151.457" x2="208.467" y2="151.457" gradientUnits="userSpaceOnUse">
<stop stop-color="#A1BAFF"/>
<stop offset="0.433" stop-color="white"/>
</linearGradient>
<linearGradient id="paint4_linear_22_123" x1="97.342" y1="132.775" x2="158.423" y2="132.775" gradientUnits="userSpaceOnUse">
<stop stop-color="#311341"/>
<stop offset="0.23" stop-color="#3113C2"/>
<stop offset="0.348" stop-color="#2F18C5"/>
<stop offset="0.493" stop-color="#2927CC"/>
<stop offset="0.652" stop-color="#1F40D8"/>
<stop offset="0.822" stop-color="#1263E9"/>
<stop offset="0.998" stop-color="#008FFF"/>
<stop offset="1" stop-color="#0090FF"/>
</linearGradient>
<linearGradient id="paint5_linear_22_123" x1="104.403" y1="82.7141" x2="116.206" y2="112.534" gradientUnits="userSpaceOnUse">
<stop stop-color="#A1BAFF"/>
<stop offset="0.433" stop-color="white"/>
</linearGradient>
<linearGradient id="paint6_linear_22_123" x1="136.758" y1="200.241" x2="138.819" y2="245.345" gradientUnits="userSpaceOnUse">
<stop offset="0.041" stop-color="#100022"/>
<stop offset="1" stop-color="#090E96"/>
</linearGradient>
<linearGradient id="paint7_linear_22_123" x1="134.076" y1="188.164" x2="186.66" y2="245.207" gradientUnits="userSpaceOnUse">
<stop offset="0.041" stop-color="#10003B"/>
<stop offset="1" stop-color="#090E96"/>
</linearGradient>
<linearGradient id="paint8_linear_22_123" x1="84.9904" y1="153.132" x2="135.386" y2="153.132" gradientUnits="userSpaceOnUse">
<stop stop-color="#7633FF"/>
<stop offset="0.159" stop-color="#7137FF"/>
<stop offset="0.353" stop-color="#6243FF"/>
<stop offset="0.568" stop-color="#4957FF"/>
<stop offset="0.794" stop-color="#2672FF"/>
<stop offset="1" stop-color="#0090FF"/>
</linearGradient>
<linearGradient id="paint9_linear_22_123" x1="120.365" y1="128.209" x2="179.29" y2="147.951" gradientUnits="userSpaceOnUse">
<stop stop-color="#7633FF"/>
<stop offset="0.097" stop-color="#7137FF"/>
<stop offset="0.216" stop-color="#6243FF"/>
<stop offset="0.346" stop-color="#4957FF"/>
<stop offset="0.484" stop-color="#2672FF"/>
<stop offset="0.61" stop-color="#0090FF"/>
</linearGradient>
<linearGradient id="paint10_linear_22_123" x1="45.2546" y1="90.5044" x2="252.421" y2="128.824" gradientUnits="userSpaceOnUse">
<stop offset="0.004" stop-color="#7633FF" stop-opacity="0"/>
<stop offset="0.092" stop-color="#7051FF" stop-opacity="0.088"/>
<stop offset="0.263" stop-color="#6685FF" stop-opacity="0.26"/>
<stop offset="0.43" stop-color="#5EB1FF" stop-opacity="0.428"/>
<stop offset="0.591" stop-color="#57D3FF" stop-opacity="0.589"/>
<stop offset="0.743" stop-color="#53EBFF" stop-opacity="0.742"/>
<stop offset="0.883" stop-color="#50FAFF" stop-opacity="0.883"/>
<stop offset="1" stop-color="#4FFFFF"/>
</linearGradient>
<linearGradient id="paint11_linear_22_123" x1="157.717" y1="50.7674" x2="208.499" y2="50.7674" gradientUnits="userSpaceOnUse">
<stop stop-color="#A1BAFF"/>
<stop offset="0.089" stop-color="#ACC2FF"/>
<stop offset="0.499" stop-color="#D9E3FF"/>
<stop offset="0.816" stop-color="#F5F7FF"/>
<stop offset="1" stop-color="white"/>
</linearGradient>
<clipPath id="clip0_22_123">
<rect width="321" height="253" fill="white"/>
</clipPath>
</defs>
</svg>
